<?xml version="1.0" standalone="no"?>
<svg viewBox="0 0 200 200" xmlns="http://www.w3.org/2000/svg">
  <path fill="#FF8120" d="M30.2,-51C40.2,-46.5,50.3,-40.6,58.6,-31.9C67,-23.2,73.7,-11.6,71.5,-1.3C69.3,9.1,58.2,18.2,49.3,25.9C40.4,33.7,33.7,40.2,25.8,51.8C18,63.4,9,80.1,-0.3,80.6C-9.5,81,-19,65.2,-30.4,55.6C-41.7,46,-54.9,42.7,-63.3,34.5C-71.7,26.2,-75.2,13.1,-76.7,-0.9C-78.2,-14.8,-77.7,-29.7,-68.8,-37.1C-59.9,-44.4,-42.7,-44.3,-29.9,-47.2C-17,-50.1,-8.5,-55.9,0.8,-57.3C10.1,-58.6,20.1,-55.4,30.2,-51Z" transform="translate(100 100)" />
</svg>
