<?xml version="1.0" encoding="iso-8859-1"?>
<!-- Generator: Adobe Illustrator 19.0.0, SVG Export Plug-In . SVG Version: 6.00 Build 0)  -->
<svg version="1.1" id="Capa_1" xmlns="http://www.w3.org/2000/svg" xmlns:xlink="http://www.w3.org/1999/xlink" x="0px" y="0px"
	 viewBox="0 0 512.001 512.001" style="enable-background:new 0 0 512.001 512.001;" xml:space="preserve">
<path style="fill:#EFC88F;" d="M428.696,430.796c5.327-32.966,13.819-98.26,12.815-174.796
	c1.005-76.537-7.487-141.83-12.815-174.796c16.776-8.217,39.969-27.123,33.013-67.618c-0.419-2.441-2.348-4.373-4.788-4.793
	c-39.3-6.753-58.269,14.89-66.866,31.508c-26.808-4.947-60.876-5.02-70.41-5.24c-47.609-1.099-95.021-1.952-142.77,0.562
	c-16.274,0.857-36.104,1.641-54.272,5.975C114.33,24.839,95.413,1.866,55.086,8.793c-2.443,0.42-4.374,2.352-4.794,4.795
	c-6.956,40.494,16.237,59.4,33.013,67.617c-5.327,32.966-13.819,98.26-12.815,174.796c-1.005,76.537,7.487,141.831,12.815,174.796
	c-16.776,8.217-39.968,27.123-33.013,67.617c0.42,2.443,2.351,4.375,4.794,4.795c40.327,6.927,59.245-16.046,67.516-32.805
	c18.169,4.333,37.999,5.118,54.272,5.975c47.749,2.514,95.16,1.661,142.77,0.562c9.534-0.22,43.602-0.293,70.41-5.24
	c8.598,16.618,27.567,38.261,66.866,31.508c2.441-0.419,4.369-2.352,4.788-4.793C468.664,457.92,445.472,439.014,428.696,430.796z"
	/>
<path style="fill:#E5B26E;" d="M461.709,498.412c-0.421,2.446-2.346,4.371-4.792,4.792c-15.5,2.667-27.842,0.913-37.627-3.208
	c0.251-0.491,0.421-1.023,0.521-1.584c5.393-31.43-7.37-49.856-21.197-60.37c-7.149-5.436-10.648-14.414-9.378-23.305
	c5.117-35.806,11.231-93.145,10.372-158.738c0.859-65.596-5.255-122.929-10.373-158.739c-1.27-8.891,2.229-17.869,9.378-23.305
	c13.827-10.514,26.59-28.94,21.197-60.37c-0.1-0.562-0.271-1.093-0.521-1.584c9.785-4.12,22.127-5.875,37.627-3.208
	c2.446,0.421,4.371,2.356,4.792,4.792c6.958,40.494-16.242,59.403-33.015,67.614c5.334,32.975,13.826,98.263,12.813,174.8
	c1.013,76.537-7.479,141.835-12.813,174.799C445.467,439.01,468.667,457.918,461.709,498.412z"/>
<path style="fill:#F45151;" d="M441.507,255.999c0.531,40.284-1.564,77.459-4.451,108.439H74.944
	c-2.887-30.98-4.983-68.155-4.451-108.439c-0.531-40.143,1.554-77.189,4.421-108.098h362.171
	C439.953,178.81,442.039,215.856,441.507,255.999z"/>
<path style="fill:#F42F2F;" d="M441.585,255.998c0.074,10.849,0.019,21.713-0.208,32.644c-0.265,12.711-0.754,25.417-1.477,38.11
	c-0.71,12.455-2.728,25.404-2.863,37.763c-3.876-0.24-41.839-0.613-41.888-0.078c2.887-30.98,4.993-68.155,4.461-108.439
	c0.531-40.143-1.554-77.189-4.431-108.098c0,0,41.908,0,41.908,0.001c2.546,18.287,2.72,37.24,3.34,55.672
	C441.018,221.156,441.467,238.558,441.585,255.998z"/>
<g>
	<path style="fill:#725151;" d="M283.112,263.459c0.003-0.351-0.002-0.703-0.013-1.057c-0.447-14.364-12.239-25.998-26.608-26.253
		c-15.199-0.269-27.605,11.971-27.605,27.109c0,0.06,0,0.12,0.001,0.18c0.031,4.798-2.816,9.088-7.217,11
		c-9.735,4.23-16.503,14.003-16.311,25.338c0.245,14.491,12.052,26.342,26.543,26.638c6.416,0.131,12.334-1.969,17.037-5.575
		c4.154-3.186,9.967-3.186,14.121,0c4.703,3.607,10.622,5.706,17.037,5.575c14.49-0.296,26.298-12.147,26.543-26.638
		c0.192-11.336-6.576-21.109-16.311-25.338C285.936,272.527,283.077,268.249,283.112,263.459z"/>
	<circle style="fill:#725151;" cx="192.43" cy="240.501" r="17.694"/>
	<circle style="fill:#725151;" cx="229.31" cy="203.611" r="17.694"/>
	<circle style="fill:#725151;" cx="319.57" cy="240.501" r="17.694"/>
	<circle style="fill:#725151;" cx="282.69" cy="203.611" r="17.694"/>
</g>
<path d="M436.952,426.688c-0.707-0.408,1.988-13.476,2.18-14.863c0.813-5.865,1.572-11.737,2.282-17.615
	c1.599-13.237,2.939-26.43,4.041-39.669c0.555-6.67,1.043-13.245,1.474-19.924c1.1-17.052,1.812-34.52,2.068-51.641
	c0.002-0.163,0.003-0.325,0.006-0.488c0.124-8.654,0.139-17.494,0.022-26.488c-0.18-13.792,0.057-27.577-0.343-41.36
	c-0.23-7.912-0.552-15.82-0.963-23.725c-0.806-15.527-1.952-31.036-3.428-46.513c-0.889-9.319-1.901-18.626-3.035-27.918
	c-1.271-10.412-2.695-20.805-4.303-31.17c17.08-9.87,39.359-31.093,32.161-72.999c-0.959-5.576-5.347-9.967-10.92-10.926
	c-40.928-7.032-62.107,14.236-72.088,30.617c-23.585-3.722-50.651-4.184-62.697-4.389c-1.425-0.024-2.633-0.044-3.591-0.067
	c-33.154-0.765-68.433-1.458-103.228-0.84c-4.149,0.074-7.451,3.497-7.378,7.646c0.073,4.103,3.422,7.379,7.509,7.379
	c0.046,0,0.091,0,0.137-0.001c34.508-0.617,69.613,0.075,102.613,0.838c0.981,0.022,2.22,0.044,3.681,0.068
	c12.589,0.215,42.07,0.717,65.539,5.049c3.258,0.604,6.516-0.998,8.037-3.936c8.075-15.606,24.634-32.976,57.767-27.747
	c5.352,33.866-12.812,50.47-29.103,58.45c-2.971,1.455-4.64,4.681-4.113,7.946c2.228,13.784,5.076,33.704,7.52,57.984H83.202
	c2.445-24.281,5.292-44.201,7.52-57.984c0.527-3.265-1.143-6.491-4.113-7.946c-16.291-7.98-34.454-24.585-29.102-58.45
	c33.755-5.328,50.364,12.719,58.357,28.916c1.552,3.144,5.072,4.791,8.481,3.984c13.145-3.135,27.083-4.3,38.982-5.025
	c4.142-0.252,7.295-3.815,7.043-7.957c-0.253-4.142-3.804-7.29-7.956-7.042c-10.89,0.664-23.438,1.687-35.891,4.17
	c-9.956-16.944-31.174-38.795-72.71-31.665c-5.576,0.959-9.967,5.349-10.925,10.927c-7.198,41.905,15.081,63.128,32.16,72.998
	c1.359,0.785-3.806,27.143-4.137,29.827c-1.777,14.409-3.253,28.823-4.44,43.236c-2.653,32.223-3.071,65.098-3.494,97.624
	c-0.318,24.485,0.312,48.961,1.773,73.409c1.073,17.949,2.576,35.68,4.531,53.48c0.885,8.052,1.86,16.093,2.932,24.122
	c0.242,1.812,3.757,19.143,2.834,19.676c-17.079,9.87-39.358,31.093-32.16,72.997c0.959,5.58,5.35,9.971,10.926,10.927
	c5.548,0.955,10.727,1.391,15.571,1.391c31.431-0.003,48.516-18.373,57.141-33.055c16.021,3.181,32.874,4.051,46.704,4.765
	l3.25,0.168c47.298,2.492,94.792,1.69,143.338,0.571c0.957-0.022,2.164-0.043,3.588-0.066c12.046-0.207,39.112-0.668,62.7-4.39
	c9.981,16.38,31.163,37.649,72.085,30.616c5.575-0.956,9.965-5.346,10.923-10.925C476.311,457.78,454.032,436.557,436.952,426.688z
	 M454.494,495.993c-33.127,5.232-49.692-12.139-57.767-27.746c-1.52-2.939-4.78-4.545-8.037-3.936
	c-23.471,4.331-52.952,4.833-65.542,5.049c-1.461,0.024-2.697,0.046-3.678,0.068c-48.247,1.114-95.426,1.909-142.201-0.554
	l-3.265-0.17c-15.634-0.807-33.354-1.722-49.658-5.61c-3.409-0.811-6.929,0.839-8.481,3.984
	c-7.993,16.196-24.586,34.255-58.358,28.915c-5.352-33.865,12.812-50.469,29.103-58.449c2.97-1.455,4.64-4.681,4.113-7.946
	c-2.217-13.719-5.049-33.519-7.486-57.647h163.767c4.15,0,7.513-3.363,7.513-7.513s-3.363-7.513-7.513-7.513H81.827
	c-0.078-0.897-0.156-1.788-0.233-2.694c-0.2-2.373-0.39-4.744-0.574-7.113c-2.936-37.915-3.578-76.061-3.021-114.171
	c0.265-18.185,0.891-36.368,2.062-54.518c0.273-4.236,0.571-8.47,0.896-12.702c0.209-2.734,0.428-5.47,0.659-8.208
	c0.06-0.708,0.121-1.403,0.182-2.104h348.404c0.058,0.676,0.118,1.346,0.175,2.027c0.615,7.278,1.155,14.563,1.618,21.853
	c2.907,45.715,3.117,91.845,0.89,137.598c-0.286,5.876-0.62,11.7-1.003,17.553c-0.435,6.656-0.926,13.235-1.483,19.85
	c-0.074,0.885-0.151,1.754-0.227,2.629H301.879c-4.15,0-7.513,3.364-7.513,7.513c0,4.15,3.363,7.513,7.513,7.513h126.886
	c-2.437,24.127-5.268,43.927-7.486,57.647c-0.527,3.264,1.142,6.491,4.113,7.946C441.682,445.523,459.846,462.129,454.494,495.993z"
	/>
<path d="M314.153,299.902c0.238-14.056-7.939-26.757-20.829-32.355c-1.651-0.718-2.711-2.302-2.698-4.033v-0.013
	c0.002-0.44-0.003-0.883-0.017-1.333c-0.575-18.474-15.502-33.203-33.983-33.531c-9.344-0.166-18.212,3.357-24.891,9.921
	c-6.682,6.563-10.361,15.335-10.361,24.7l0.001,0.229c0.012,1.776-1.022,3.332-2.697,4.06c-12.892,5.602-21.068,18.302-20.83,32.356
	c0.312,18.385,15.519,33.647,33.901,34.021c7.865,0.159,15.563-2.371,21.763-7.124c1.466-1.123,3.513-1.124,4.979-0.001
	c6.015,4.614,13.469,7.133,21.061,7.133c0.234,0,0.468-0.003,0.701-0.008C298.634,333.549,313.841,318.287,314.153,299.902z
	 M279.945,318.901c-4.491,0.074-8.758-1.3-12.313-4.026c-3.425-2.626-7.528-3.938-11.632-3.938c-4.104,0-8.209,1.313-11.633,3.938
	c-3.555,2.725-7.822,4.129-12.313,4.025c-10.402-0.212-19.008-8.849-19.184-19.253c-0.135-7.958,4.494-15.148,11.794-18.321
	c7.18-3.12,11.786-10.161,11.735-17.89l-0.001-0.18c0-5.3,2.083-10.266,5.865-13.982c3.781-3.715,8.757-5.706,14.095-5.614
	c10.284,0.183,18.911,8.695,19.231,18.969c0.008,0.264,0.011,0.527,0.009,0.787c-0.052,7.76,4.553,14.79,11.736,17.911
	c7.299,3.171,11.928,10.362,11.793,18.32C298.953,310.052,290.347,318.689,279.945,318.901z"/>
<path d="M217.636,240.5c0-13.899-11.308-25.207-25.208-25.207c-13.899,0-25.207,11.308-25.207,25.207
	c0,13.9,11.308,25.208,25.207,25.208C206.328,265.708,217.636,254.4,217.636,240.5z M192.427,250.682
	c-5.613,0-10.181-4.568-10.181-10.182c0-5.613,4.568-10.181,10.181-10.181c5.614,0,10.182,4.568,10.182,10.181
	C202.609,246.114,198.042,250.682,192.427,250.682z"/>
<path d="M229.314,228.821c13.899,0,25.207-11.308,25.207-25.207s-11.308-25.208-25.207-25.208s-25.207,11.308-25.207,25.208
	C204.107,217.514,215.415,228.821,229.314,228.821z M229.314,193.433c5.613,0,10.181,4.568,10.181,10.181
	s-4.568,10.181-10.181,10.181s-10.181-4.567-10.181-10.181C219.133,198.001,223.701,193.433,229.314,193.433z"/>
<path d="M294.365,240.5c0,13.9,11.308,25.208,25.208,25.208c13.899,0,25.207-11.308,25.207-25.208
	c0-13.899-11.308-25.207-25.207-25.207C305.672,215.293,294.365,226.601,294.365,240.5z M319.573,230.319
	c5.613,0,10.181,4.568,10.181,10.181c0,5.614-4.568,10.182-10.181,10.182c-5.614,0-10.182-4.568-10.182-10.182
	C309.391,234.887,313.958,230.319,319.573,230.319z"/>
<path d="M282.686,228.821c13.899,0,25.207-11.308,25.207-25.207s-11.308-25.208-25.207-25.208s-25.207,11.308-25.207,25.208
	C257.479,217.514,268.787,228.821,282.686,228.821z M282.686,193.433c5.613,0,10.181,4.568,10.181,10.181
	s-4.568,10.181-10.181,10.181s-10.181-4.567-10.181-10.181C272.505,198.001,277.073,193.433,282.686,193.433z"/>
<g>
</g>
<g>
</g>
<g>
</g>
<g>
</g>
<g>
</g>
<g>
</g>
<g>
</g>
<g>
</g>
<g>
</g>
<g>
</g>
<g>
</g>
<g>
</g>
<g>
</g>
<g>
</g>
<g>
</g>
</svg>
